<svg width="200" height="200" viewBox="0 0 200 200" fill="none" xmlns="http://www.w3.org/2000/svg">
<rect width="200" height="200" fill="#0D1F22"/>
<path d="M81 109V114.571H86.5714V109H81ZM81 114.571V120.143H86.5714V114.571H81ZM81 120.143V125.714H86.5714V120.143H81ZM81 125.714V131.286H86.5714V125.714H81ZM81 131.286V136.857H86.5714V131.286H81ZM81 136.857V142.429H86.5714V136.857H81ZM81 142.429V148H86.5714V142.429H81ZM86.5714 142.429V148H92.1429V142.429H86.5714ZM92.1429 142.429V148H97.7143V142.429H92.1429ZM97.7143 142.429V148H103.286V142.429H97.7143ZM103.286 142.429V148H108.857V142.429H103.286ZM108.857 142.429V148H114.429V142.429H108.857ZM114.429 142.429V148H120V142.429H114.429ZM86.5714 114.571V120.143H92.1429V114.571H86.5714ZM86.5714 120.143V125.714H92.1429V120.143H86.5714ZM86.5714 125.714V131.286H92.1429V125.714H86.5714ZM92.1429 131.286V136.857H97.7143V131.286H92.1429ZM92.1429 136.857V142.429H97.7143V136.857H92.1429ZM97.7143 136.857V142.429H103.286V136.857H97.7143ZM97.7143 131.286V136.857H103.286V131.286H97.7143ZM103.286 131.286V136.857H108.857V131.286H103.286ZM92.1429 120.143V125.714H97.7143V120.143H92.1429ZM92.1429 125.714V131.286H97.7143V125.714H92.1429ZM97.7143 125.714V131.286H103.286V125.714H97.7143ZM86.5714 131.286V136.857H92.1429V131.286H86.5714ZM86.5714 136.857V142.429H92.1429V136.857H86.5714ZM103.286 136.857V142.429H108.857V136.857H103.286ZM108.857 136.857V142.429H114.429V136.857H108.857Z" fill="#F7EBE8"/>
<path d="M108.103 154.626V146.574C113.196 146.437 116.637 145.335 118.426 143.271C120.353 141.069 121.316 137.215 121.316 131.71V80.5097C121.316 73.0774 119.802 67.5032 116.774 63.7871C113.884 60.071 109.548 58.2129 103.768 58.2129C99.2259 58.2129 95.028 59.5204 91.1742 62.1355C87.3205 64.7505 84.0173 68.5355 81.2646 73.4903V64.4064C84.7054 58.2129 89.385 53.4645 95.3033 50.1613C101.359 46.7204 108.241 45 115.948 45C126.959 45 135.355 48.3032 141.136 54.9097C146.916 61.3785 149.807 70.7376 149.807 82.9871V131.71C149.807 137.215 151.252 141.069 154.142 143.271C157.032 145.335 162.125 146.437 169.419 146.574V154.626C167.355 154.488 164.465 154.419 160.748 154.419C157.17 154.282 153.179 154.144 148.774 154.006C144.508 153.869 140.31 153.8 136.181 153.8C130.813 153.8 125.445 153.938 120.077 154.213C114.71 154.351 110.718 154.488 108.103 154.626ZM34.1936 154.626V146.574C41.6259 146.437 46.7183 145.335 49.471 143.271C52.3613 141.069 53.8065 137.215 53.8065 131.71V74.1097C53.8065 67.6409 52.2925 63.0989 49.2646 60.4839C46.3742 57.7312 41.3506 56.2172 34.1936 55.9419V47.8903C37.0839 48.028 39.9742 48.1656 42.8646 48.3032C45.7549 48.4409 48.714 48.5097 51.742 48.5097C57.6603 48.5097 63.1656 48.3032 68.2581 47.8903C73.3506 47.3398 78.0302 46.5828 82.2968 45.6194V131.71C82.2968 137.215 83.2603 141.069 85.1871 143.271C86.5 147.626 99.5 146.807 108.103 146.574V154.626C102 154.947 88.6968 154.351 83.742 154.213C78.7872 153.938 73.6259 153.8 68.2581 153.8C62.2022 153.8 55.9398 153.938 49.471 154.213C43.1398 154.351 38.0474 154.488 34.1936 154.626Z" fill="url(#paint0_linear_192_4)"/>
<path d="M34.1936 154.006V145.955C41.6259 145.817 46.7183 144.716 49.471 142.652C52.3613 140.449 53.8065 136.596 53.8065 131.09V73.4903C53.8065 67.0215 52.2925 62.4796 49.2646 59.8645C46.3742 57.1118 41.3506 55.5978 34.1936 55.3226V47.271C37.0839 47.4086 39.9742 47.5462 42.8646 47.6839C45.7549 47.8215 48.714 47.8903 51.742 47.8903C57.6603 47.8903 63.1656 47.6839 68.2581 47.271C73.3506 46.7204 78.0302 45.9634 82.2968 45V131.09C82.2968 136.596 83.2603 140.449 85.1871 142.652C86.5 147.006 99.5 147.733 108.103 147.5V154.006C102 154.328 88.6968 153.731 83.742 153.594C78.7871 153.318 73.6259 153.181 68.2581 153.181C62.2022 153.181 55.9398 153.318 49.471 153.594C43.1398 153.731 38.0474 153.869 34.1936 154.006Z" fill="url(#paint1_linear_192_4)"/>
<defs>
<linearGradient id="paint0_linear_192_4" x1="101.807" y1="83.1258" x2="101.807" y2="154.72" gradientUnits="userSpaceOnUse">
<stop stop-color="#F7EBE8"/>
<stop offset="1" stop-color="#C91818"/>
</linearGradient>
<linearGradient id="paint1_linear_192_4" x1="71.1484" y1="45" x2="71.1484" y2="154.1" gradientUnits="userSpaceOnUse">
<stop offset="0.441221" stop-color="#F7EBE8"/>
<stop offset="1" stop-color="#CB2E2E"/>
</linearGradient>
</defs>
</svg>
