<svg width="136" height="110" viewBox="0 0 136 110" fill="none" xmlns="http://www.w3.org/2000/svg">
<path d="M47 64V69.5714H52.5714V64H47ZM47 69.5714V75.1429H52.5714V69.5714H47ZM47 75.1429V80.7143H52.5714V75.1429H47ZM47 80.7143V86.2857H52.5714V80.7143H47ZM47 86.2857V91.8571H52.5714V86.2857H47ZM47 91.8571V97.4286H52.5714V91.8571H47ZM47 97.4286V103H52.5714V97.4286H47ZM52.5714 97.4286V103H58.1429V97.4286H52.5714ZM58.1429 97.4286V103H63.7143V97.4286H58.1429ZM63.7143 97.4286V103H69.2857V97.4286H63.7143ZM69.2857 97.4286V103H74.8571V97.4286H69.2857ZM74.8571 97.4286V103H80.4286V97.4286H74.8571ZM80.4286 97.4286V103H86V97.4286H80.4286ZM52.5714 69.5714V75.1429H58.1429V69.5714H52.5714ZM52.5714 75.1429V80.7143H58.1429V75.1429H52.5714ZM52.5714 80.7143V86.2857H58.1429V80.7143H52.5714ZM58.1429 86.2857V91.8571H63.7143V86.2857H58.1429ZM58.1429 91.8571V97.4286H63.7143V91.8571H58.1429ZM63.7143 91.8571V97.4286H69.2857V91.8571H63.7143ZM63.7143 86.2857V91.8571H69.2857V86.2857H63.7143ZM69.2857 86.2857V91.8571H74.8571V86.2857H69.2857ZM58.1429 75.1429V80.7143H63.7143V75.1429H58.1429ZM58.1429 80.7143V86.2857H63.7143V80.7143H58.1429ZM63.7143 80.7143V86.2857H69.2857V80.7143H63.7143ZM52.5714 86.2857V91.8571H58.1429V86.2857H52.5714ZM52.5714 91.8571V97.4286H58.1429V91.8571H52.5714ZM69.2857 91.8571V97.4286H74.8571V91.8571H69.2857ZM74.8571 91.8571V97.4286H80.4286V91.8571H74.8571Z" fill="#F7EBE8"/>
<path d="M74.1033 109.626V101.574C79.1958 101.437 82.6366 100.335 84.4259 98.271C86.3527 96.0688 87.3162 92.215 87.3162 86.7097V35.5097C87.3162 28.0774 85.8022 22.5032 82.7742 18.7871C79.8839 15.071 75.5484 13.2129 69.7678 13.2129C65.2259 13.2129 61.028 14.5204 57.1742 17.1355C53.3205 19.7505 50.0173 23.5355 47.2646 28.4903V19.4064C50.7054 13.2129 55.385 8.46451 61.3033 5.16129C67.3592 1.72043 74.2409 0 81.9484 0C92.9592 0 101.355 3.30323 107.136 9.90968C112.916 16.3785 115.807 25.7376 115.807 37.9871V86.7097C115.807 92.215 117.252 96.0688 120.142 98.271C123.032 100.335 128.125 101.437 135.419 101.574V109.626C133.355 109.488 130.465 109.419 126.748 109.419C123.17 109.282 119.179 109.144 114.774 109.006C110.508 108.869 106.31 108.8 102.181 108.8C96.813 108.8 91.4452 108.938 86.0775 109.213C80.7097 109.351 76.7183 109.488 74.1033 109.626ZM0.193604 109.626V101.574C7.62586 101.437 12.7183 100.335 15.471 98.271C18.3613 96.0688 19.8065 92.215 19.8065 86.7097V29.1097C19.8065 22.6409 18.2925 18.0989 15.2646 15.4839C12.3742 12.7312 7.35059 11.2172 0.193604 10.9419V2.89032C3.08393 3.02795 5.97425 3.16559 8.86457 3.30322C11.7549 3.44086 14.714 3.50967 17.742 3.50967C23.6603 3.50967 29.1656 3.30322 34.2581 2.89032C39.3506 2.33978 44.0302 1.58279 48.2968 0.619354V86.7097C48.2968 92.215 49.2603 96.0688 51.1871 98.271C52.5 102.626 65.5 101.807 74.1033 101.574V109.626C68 109.947 54.6968 109.351 49.742 109.213C44.7871 108.938 39.6259 108.8 34.2581 108.8C28.2022 108.8 21.9398 108.938 15.471 109.213C9.13984 109.351 4.04737 109.488 0.193604 109.626Z" fill="url(#paint0_linear_196_2)"/>
<path d="M0.193604 109.006V100.955C7.62586 100.817 12.7183 99.7161 15.471 97.6516C18.3613 95.4495 19.8065 91.5957 19.8065 86.0903V28.4903C19.8065 22.0215 18.2925 17.4796 15.2646 14.8645C12.3742 12.1118 7.35059 10.5978 0.193604 10.3226V2.27097C3.08393 2.4086 5.97425 2.54623 8.86457 2.68387C11.7549 2.8215 14.714 2.89032 17.742 2.89032C23.6603 2.89032 29.1656 2.68387 34.2581 2.27097C39.3506 1.72043 44.0302 0.96344 48.2968 0V86.0903C48.2968 91.5957 49.2603 95.4495 51.1871 97.6516C52.5 102.006 65.5 102.733 74.1033 102.5V109.006C68 109.328 54.6968 108.731 49.742 108.594C44.7871 108.318 39.6259 108.181 34.2581 108.181C28.2022 108.181 21.9398 108.318 15.471 108.594C9.13984 108.731 4.04737 108.869 0.193604 109.006Z" fill="url(#paint1_linear_196_2)"/>
<defs>
<linearGradient id="paint0_linear_196_2" x1="67.8065" y1="38.1258" x2="67.8065" y2="109.72" gradientUnits="userSpaceOnUse">
<stop stop-color="#F7EBE8"/>
<stop offset="1" stop-color="#C91818"/>
</linearGradient>
<linearGradient id="paint1_linear_196_2" x1="37.1484" y1="0" x2="37.1484" y2="109.1" gradientUnits="userSpaceOnUse">
<stop offset="0.441221" stop-color="#F7EBE8"/>
<stop offset="1" stop-color="#CB2E2E"/>
</linearGradient>
</defs>
</svg>
